<svg width="28" height="30" viewBox="0 0 28 30" fill="none" xmlns="http://www.w3.org/2000/svg">
<g clip-path="url(#clip0_30_9)">
<path fill-rule="evenodd" clip-rule="evenodd" d="M23.1456 0.685791H24.7914L24.7397 0.977151H24.4312C24.2769 0.977151 24.1741 0.943042 24.1741 0.943042V1.47449C24.1741 1.66286 24.1226 1.85167 24.1226 2.04004C24.1226 2.22864 24.0711 2.41723 24.0711 2.52022H23.6598V2.04004C23.6598 1.85167 23.7113 1.66286 23.7113 1.47449C23.7113 1.26873 23.7624 1.02887 23.7624 0.943042H23.5569H23.3509C23.2481 0.943042 23.1453 0.977151 23.1453 0.977151L23.1456 0.685791ZM24.9967 0.685791H25.5623C25.5623 0.788559 25.6138 0.891548 25.6138 0.942822C25.6138 1.02865 25.7165 1.18269 25.768 1.37128C25.768 1.42277 25.8195 1.55987 25.8195 1.66264C25.8706 1.85123 25.9738 2.03982 25.9738 2.03982C25.9738 1.93706 26.0766 1.79996 26.1281 1.61137C26.1791 1.47427 26.2823 1.26851 26.3336 1.13141C26.3851 0.976931 26.4878 0.788559 26.4878 0.685791H27.1051V1.26851C27.1051 1.47427 27.0536 1.74846 27.0536 1.93706V2.52H26.6423V2.14281V1.66264C26.6423 1.50838 26.6938 1.37128 26.6938 1.26829V1.08014L26.1283 2.52022H25.7165C25.7165 2.41723 25.6138 2.22886 25.6138 2.09154C25.5623 1.85167 25.4595 1.66286 25.4595 1.61159C25.4595 1.50882 25.3567 1.32023 25.3052 1.13163V1.61159C25.3052 1.74868 25.2538 1.93728 25.2538 2.09154V2.52022H24.8425C24.8425 2.33163 24.894 2.09154 24.894 1.886C24.894 1.71457 24.945 1.47449 24.945 1.26873C24.9452 1.08014 24.9967 0.891548 24.9967 0.685791ZM5.21414 29.8797H4.11692L3.68846 28.3371H1.66544L1.23698 29.8797H0.174088L2.04262 23.0569H3.24261L5.21414 29.8797ZM3.37971 27.2227L2.65989 24.6515L1.99113 27.2227H3.37971ZM9.15697 29.8797H8.23117V29.1771C8.07691 29.4856 7.87115 29.6916 7.68256 29.7772C7.49419 29.8799 7.28821 30.0003 7.08245 30.0003C6.70527 30.0003 6.32831 29.7428 6.05389 29.3144C5.74537 28.9202 5.60827 28.2348 5.60827 27.4289C5.60827 26.6063 5.74559 25.8858 6.00262 25.4574C6.27681 25.0461 6.67116 24.789 7.13417 24.789C7.49419 24.789 7.87137 25.0461 8.19684 25.5089V23.0572H9.15697V29.8797ZM6.55123 27.3087C6.55123 27.8228 6.61989 28.2856 6.70549 28.4916C6.85997 28.8001 7.08267 29.0056 7.33993 29.0056C7.57979 29.0056 7.76838 28.8514 7.92265 28.663C8.07691 28.4055 8.19684 27.9771 8.19684 27.463C8.19684 26.9142 8.11124 26.4516 7.95698 26.1941C7.81966 25.9371 7.57979 25.7657 7.33993 25.7657C7.13417 25.7657 6.94558 25.9371 6.77415 26.1431C6.61967 26.4001 6.55123 26.7942 6.55123 27.3087ZM9.94544 27.3087C9.94544 26.9142 9.99672 26.4857 10.1512 26.0916C10.3226 25.6803 10.5455 25.3718 10.8197 25.1658C11.1111 24.9431 11.4711 24.7888 11.8142 24.7888C12.3456 24.7888 12.8428 25.0459 13.1685 25.5086C13.5285 26.0227 13.7171 26.7086 13.7171 27.4287C13.7171 28.1487 13.5285 28.8001 13.1685 29.2631C12.7913 29.7428 12.3456 30.0003 11.8142 30.0003C11.4885 30.0003 11.1628 29.8799 10.8543 29.6918C10.5458 29.4858 10.3228 29.1773 10.1514 28.8003C9.99716 28.4057 9.94566 27.8917 9.94566 27.3772L9.94544 27.3087ZM10.9053 27.4287C10.9053 27.9432 10.9568 28.3373 11.1111 28.5943C11.2825 28.8514 11.5398 29.0056 11.7799 29.0056C12.0026 29.0056 12.2598 28.8514 12.4141 28.5943C12.5855 28.3373 12.6883 27.9432 12.6883 27.4287C12.6883 26.9142 12.5855 26.4857 12.4141 26.2287C12.2598 25.9373 12.0026 25.7657 11.7799 25.7657C11.5398 25.7657 11.2999 25.9371 11.1626 26.1941C11.0083 26.4855 10.9053 26.9142 10.9053 27.4287ZM14.4712 29.8797V23.0569H15.4309V25.5086C15.7055 25.0456 16.0997 24.7888 16.4766 24.7888C16.9223 24.7888 17.2997 25.0459 17.591 25.4571C17.8824 25.8856 18.054 26.5372 18.054 27.3772C18.054 28.2002 17.8826 28.9202 17.591 29.3144C17.2825 29.7428 16.9055 30.0003 16.5281 30.0003C16.3226 30.0003 16.0997 29.8799 15.9109 29.7772C15.7053 29.6916 15.5167 29.4345 15.4135 29.1771V29.8797H14.4712ZM15.4309 27.3087C15.4309 27.8228 15.5169 28.2856 15.6023 28.4916C15.7566 28.8001 16.0141 29.0056 16.2883 29.0056C16.5281 29.0056 16.7167 28.8514 16.8538 28.663C17.0081 28.457 17.0937 27.9771 17.0937 27.463C17.0937 26.9142 17.0081 26.4516 16.8538 26.1941C16.7167 25.9371 16.4764 25.7657 16.2365 25.7657C16.0138 25.7657 15.8252 25.9371 15.671 26.1431C15.5169 26.4001 15.4309 26.7942 15.4309 27.3087ZM20.9681 28.3373L21.9282 28.4916C21.825 29.0056 21.5851 29.4345 21.3455 29.6229C21.0713 29.8289 20.6939 30.0003 20.2997 30.0003C19.717 30.0003 19.2025 29.6918 18.9109 29.1773C18.6711 28.7488 18.5679 28.1487 18.5679 27.4632C18.5679 26.6574 18.705 25.9719 19.0135 25.5089C19.322 25.0459 19.7679 24.789 20.2478 24.789C20.779 24.789 21.2079 25.0461 21.4995 25.5089C21.825 26.0229 22.0136 26.7945 22.0136 27.7717H19.5284C19.5284 28.2002 19.5799 28.4916 19.7516 28.7143C19.9054 28.9202 20.0942 29.0056 20.3 29.0056C20.4714 29.0056 20.6257 28.9717 20.6941 28.8514C20.7795 28.7486 20.8827 28.5431 20.9681 28.3373ZM21.0541 26.9657C21.0541 26.6059 20.917 26.2802 20.8138 26.0914C20.6767 25.8854 20.4712 25.7657 20.2826 25.7657C20.0594 25.7657 19.8541 25.9371 19.7514 26.1431C19.5799 26.3486 19.5282 26.6571 19.5282 26.9657H21.0541Z" fill="black"/>
<path fill-rule="evenodd" clip-rule="evenodd" d="M0.00265503 0H8.23117L0.00265503 20.0401V0ZM13.8368 0H22.1681V19.7826L13.8368 0ZM11.1283 7.66273L15.6712 19.68H12.8597L10.9225 15.8745H7.83682L11.1283 7.66273Z" fill="#CC2229"/>
</g>
<defs>
<clipPath id="clip0_30_9">
<rect width="27.108" height="30" fill="white"/>
</clipPath>
</defs>
</svg>
