<svg width="39" height="39" viewBox="0 0 39 39" fill="none" xmlns="http://www.w3.org/2000/svg">
<g clip-path="url(#clip0_9_104)">
<path d="M10.335 30.5174L10.7413 34.1249L13.3738 31.6224L17.875 19.2724C16.77 18.9962 15.795 18.4437 14.9988 17.6799L10.335 30.5174Z" fill="#422300"/>
<path d="M24.0013 17.6799C23.205 18.4437 22.2138 18.9962 21.125 19.2724L25.6263 31.6224L28.2587 34.1249L28.6812 30.5174L24.0013 17.6799Z" fill="#422300"/>
<path d="M24.375 13C24.375 10.8875 23.01 9.1 21.125 8.4175V4.875H17.875V8.4175C15.99 9.1 14.625 10.8875 14.625 13C14.625 15.6975 16.8025 17.875 19.5 17.875C22.1975 17.875 24.375 15.6975 24.375 13ZM19.5 14.625C18.6063 14.625 17.875 13.8938 17.875 13C17.875 12.1062 18.6063 11.375 19.5 11.375C20.3938 11.375 21.125 12.1062 21.125 13C21.125 13.8938 20.3938 14.625 19.5 14.625Z" fill="#422300"/>
</g>
<defs>
<clipPath id="clip0_9_104">
<rect width="39" height="39" fill="white"/>
</clipPath>
</defs>
</svg>
