<svg width="35" height="35" viewBox="0 0 35 35" fill="none" xmlns="http://www.w3.org/2000/svg">
<g clip-path="url(#clip0_9_99)">
<path d="M21.4594 12.6416L17.9561 15.9009L14.7055 9.3439L16.3877 5.57265C16.8252 4.80703 17.5077 4.81578 17.9342 5.57265L21.4594 12.6416Z" fill="#FFA000"/>
<path d="M14.7055 9.34399L17.9561 15.901L4.86391 28.0799L14.7055 9.34399Z" fill="#F57F17"/>
<path d="M25.2908 7.65951C25.9164 7.05795 26.5639 7.26357 26.7291 8.11561L30.1372 27.9179L18.8409 34.6992C18.4472 34.9179 17.3972 35.012 17.3972 35.012C17.3972 35.012 16.4413 34.8983 16.077 34.6839L4.86391 28.0798L25.2908 7.65951Z" fill="#FFCA28"/>
<path d="M14.7055 9.34386L4.86501 28.0798L9.24766 0.697768C9.40954 -0.155357 9.89516 -0.237388 10.3283 0.515112L14.7055 9.34386Z" fill="#FFA000"/>
</g>
<defs>
<clipPath id="clip0_9_99">
<rect width="35" height="35" fill="white"/>
</clipPath>
</defs>
</svg>
