<svg width="35" height="35" viewBox="0 0 35 35" fill="none" xmlns="http://www.w3.org/2000/svg">
<g clip-path="url(#clip0_9_97)">
<path d="M34.3394 15.9413L19.0586 0.660563C18.8494 0.451223 18.6009 0.285159 18.3275 0.17186C18.0541 0.0585599 17.761 0.000244141 17.465 0.000244141C17.169 0.000244141 16.8759 0.0585599 16.6025 0.17186C16.3291 0.285159 16.0806 0.451223 15.8714 0.660563L12.6995 3.83244L16.7245 7.85744C17.6608 7.52931 18.7327 7.75353 19.4786 8.49947C19.8337 8.85519 20.0816 9.30361 20.1939 9.79351C20.3063 10.2834 20.2786 10.795 20.1141 11.2699L23.9936 15.1495C24.932 14.8257 26.0148 15.0346 26.7641 15.786C27.0131 16.0352 27.2107 16.3309 27.3454 16.6564C27.4802 16.9819 27.5495 17.3307 27.5495 17.683C27.5494 18.0353 27.48 18.3841 27.3451 18.7095C27.2103 19.035 27.0126 19.3306 26.7635 19.5797C26.5144 19.8288 26.2186 20.0263 25.8932 20.1611C25.5677 20.2958 25.2188 20.3652 24.8666 20.3651C24.5143 20.3651 24.1655 20.2956 23.84 20.1608C23.5146 20.0259 23.2189 19.8283 22.9698 19.5792C22.1823 18.7917 21.9877 17.6323 22.3858 16.6621L18.7677 13.044V22.5651C19.0303 22.6951 19.2703 22.8664 19.4786 23.0726C19.7277 23.3217 19.9252 23.6173 20.06 23.9427C20.1948 24.2682 20.2642 24.6169 20.2642 24.9692C20.2642 25.3214 20.1948 25.6702 20.06 25.9956C19.9252 26.321 19.7277 26.6167 19.4786 26.8657C19.2295 27.1148 18.9339 27.3123 18.6084 27.4471C18.283 27.5819 17.9343 27.6513 17.582 27.6513C17.2298 27.6513 16.881 27.5819 16.5556 27.4471C16.2302 27.3123 15.9345 27.1148 15.6855 26.8657C15.4361 26.6168 15.2383 26.3212 15.1033 25.9958C14.9683 25.6703 14.8989 25.3215 14.8989 24.9692C14.8989 24.6168 14.9683 24.268 15.1033 23.9426C15.2383 23.6171 15.4361 23.3215 15.6855 23.0726C15.9447 22.8145 16.2323 22.6187 16.5638 22.4874V12.8778C16.2444 12.7465 15.9447 12.5529 15.6855 12.2926C15.3089 11.9164 15.0528 11.4367 14.95 10.9144C14.8471 10.3922 14.9021 9.85111 15.108 9.36025L11.1377 5.39213L0.659531 15.8593C0.450027 16.0686 0.283825 16.3171 0.170428 16.5906C0.0570319 16.8641 -0.00133514 17.1573 -0.00133514 17.4535C-0.00133514 17.7496 0.0570319 18.0428 0.170428 18.3163C0.283825 18.5898 0.450027 18.8383 0.659531 19.0476L15.9414 34.3273C16.1506 34.5366 16.3991 34.7027 16.6725 34.816C16.9459 34.9293 17.239 34.9876 17.535 34.9876C17.831 34.9876 18.1241 34.9293 18.3975 34.816C18.6709 34.7027 18.9194 34.5366 19.1286 34.3273L34.3394 19.1406C34.5489 18.9313 34.7151 18.6828 34.8285 18.4093C34.9419 18.1357 35.0002 17.8425 35.0002 17.5464C35.0002 17.2503 34.9419 16.9571 34.8285 16.6836C34.7151 16.41 34.5489 16.1615 34.3394 15.9523" fill="#F03C2E"/>
</g>
<defs>
<clipPath id="clip0_9_97">
<rect width="35" height="35" fill="white"/>
</clipPath>
</defs>
</svg>
