<svg width="26" height="26" viewBox="0 0 26 26" fill="none" xmlns="http://www.w3.org/2000/svg">
<g clip-path="url(#clip0_9_82)">
<path d="M0 0H26V26H0V0Z" fill="#F0DB4F"/>
<path d="M23.872 19.7991C23.6817 18.6128 22.9082 17.6168 20.6171 16.6875C19.8213 16.3218 18.934 16.0598 18.6696 15.4567C18.5757 15.1058 18.5633 14.9081 18.6226 14.6955C18.7932 14.006 19.6162 13.791 20.2686 13.9887C20.6888 14.1296 21.0867 14.4533 21.3264 14.9699C22.4485 14.2433 22.446 14.2482 23.2295 13.749C22.9428 13.3041 22.7895 13.099 22.6017 12.9087C21.927 12.1549 21.0076 11.7668 19.5371 11.7965C19.2825 11.8286 19.0255 11.8632 18.7709 11.8954C18.0369 12.0807 17.3375 12.4663 16.9272 12.9828C15.6964 14.3792 16.0473 16.8235 17.5451 17.8294C19.0205 18.9366 21.188 19.1887 21.4648 20.2243C21.7342 21.4921 20.5331 21.9024 19.3394 21.7566C18.4595 21.5737 17.9702 21.1264 17.4413 20.3132C16.4675 20.8767 16.4675 20.8767 15.4666 21.4526C15.7038 21.9716 15.9534 22.2064 16.3514 22.6562C18.2346 24.5667 22.9477 24.4727 23.793 21.5811C23.8276 21.4822 24.055 20.8199 23.872 19.7991ZM14.1344 11.9497H11.7025C11.7025 14.0505 11.6926 16.1364 11.6926 18.2372C11.6926 19.5742 11.7618 20.8001 11.5443 21.1758C11.1884 21.9147 10.2666 21.8233 9.84641 21.6799C9.41884 21.4698 9.20135 21.1708 8.94926 20.7482C8.88006 20.6271 8.82816 20.5332 8.81083 20.5258C8.15097 20.9286 7.49353 21.3339 6.83365 21.7368C7.16238 22.4115 7.64677 22.9972 8.26711 23.3778C9.19391 23.9339 10.4395 24.1044 11.742 23.8054C12.5898 23.5582 13.3213 23.0467 13.7044 22.2682C14.258 21.2474 14.1394 20.0117 14.1344 18.645C14.1468 16.4157 14.1344 14.1864 14.1344 11.9497Z" fill="#323330"/>
</g>
<defs>
<clipPath id="clip0_9_82">
<rect width="26" height="26" fill="white"/>
</clipPath>
</defs>
</svg>
