<svg width="38" height="20" viewBox="0 0 38 20" fill="none" xmlns="http://www.w3.org/2000/svg">
<path d="M0.521378 9.9999C0.521378 15.2347 8.58888 19.4785 18.5403 19.4785C28.4916 19.4785 36.5592 15.2347 36.5592 9.9999C36.5592 4.76511 28.4916 0.521276 18.5403 0.521276C8.58888 0.521276 0.521378 4.76511 0.521378 9.9999Z" fill="url(#paint0_radial_9_53)"/>
<path d="M18.5403 18.7747C28.103 18.7747 35.8553 14.846 35.8553 9.99977C35.8553 5.15361 28.103 1.22488 18.5403 1.22488C8.97757 1.22488 1.22523 5.15361 1.22523 9.99977C1.22523 14.846 8.97757 18.7747 18.5403 18.7747Z" fill="#777BB3"/>
<path d="M10.3112 11.0877C11.0975 11.0877 11.6845 10.9427 12.056 10.6569C12.4234 10.374 12.6772 9.88381 12.8102 9.20008C12.9342 8.561 12.887 8.11477 12.6698 7.87395C12.4478 7.62799 11.9677 7.50325 11.243 7.50325H9.9864L9.28977 11.0877H10.3112ZM6.20125 15.5032C6.14292 15.5032 6.08752 15.4771 6.05044 15.432C6.01329 15.387 5.99823 15.3277 6.00938 15.2704L7.85558 5.77142C7.87344 5.6796 7.95393 5.61325 8.04752 5.61325H12.0266C13.2771 5.61325 14.2079 5.9528 14.7929 6.62258C15.3811 7.29587 15.5628 8.23703 15.3328 9.41984C15.2392 9.90173 15.0782 10.3493 14.8543 10.7499C14.6302 11.1511 14.334 11.5222 13.9738 11.8533C13.5426 12.2569 13.0546 12.5495 12.5246 12.7217C12.003 12.8916 11.3332 12.9777 10.5337 12.9777H8.92252L8.46241 15.3449C8.44455 15.4368 8.36413 15.5032 8.27054 15.5032H6.20125Z" fill="black"/>
<path d="M10.1476 7.69881H11.243C12.1177 7.69881 12.4215 7.89074 12.5248 8.00512C12.696 8.19503 12.7284 8.59545 12.6183 9.16304C12.4946 9.79847 12.2653 10.249 11.9367 10.502C11.6003 10.761 11.0534 10.8923 10.3112 10.8923H9.52695L10.1476 7.69881ZM12.0266 5.41777H8.04747C7.8603 5.41777 7.69939 5.55046 7.66367 5.73418L5.81746 15.2331C5.79518 15.3478 5.82529 15.4663 5.89952 15.5565C5.97381 15.6466 6.08448 15.6987 6.20127 15.6987H8.27049C8.45773 15.6987 8.61864 15.566 8.65436 15.3823L9.08371 13.1733H10.5337C11.3537 13.1733 12.044 13.0839 12.5853 12.9076C13.1419 12.7267 13.6541 12.4201 14.1073 11.9962C14.4822 11.6513 14.791 11.2642 15.025 10.8455C15.259 10.4266 15.4271 9.95951 15.5247 9.45716C15.7668 8.21211 15.5701 7.2151 14.9402 6.49403C14.3163 5.77987 13.336 5.41777 12.0266 5.41777ZM9.05256 11.2833H10.3112C11.1455 11.2833 11.7669 11.1262 12.1752 10.8118C12.5836 10.4974 12.859 9.97274 13.0021 9.23747C13.1391 8.53152 13.0767 8.03334 12.815 7.74313C12.553 7.45291 12.0291 7.30777 11.243 7.30777H9.82525L9.05256 11.2833ZM12.0266 5.80881C13.2236 5.80881 14.0968 6.12294 14.6457 6.75127C15.1945 7.37959 15.3598 8.25662 15.1408 9.3826C15.0507 9.84644 14.8983 10.2705 14.6837 10.6547C14.4688 11.0392 14.1882 11.3907 13.8415 11.7095C13.4283 12.0961 12.9693 12.3717 12.4642 12.5358C11.9591 12.7003 11.3158 12.7823 10.5337 12.7823H8.76131L8.27049 15.3077H6.20127L8.04747 5.80881H12.0266Z" fill="white"/>
<path d="M20.0772 12.9778C20.0188 12.9778 19.9635 12.9517 19.9264 12.9066C19.8892 12.8616 19.8742 12.8023 19.8853 12.745L20.702 8.54208C20.7797 8.14238 20.7605 7.85549 20.6481 7.73427C20.5793 7.66017 20.3725 7.53588 19.7613 7.53588H18.2817L17.2549 12.8195C17.2371 12.9114 17.1566 12.9778 17.063 12.9778H15.0101C14.9517 12.9778 14.8963 12.9517 14.8592 12.9066C14.8221 12.8616 14.807 12.8023 14.8181 12.745L16.6643 3.24603C16.6822 3.15421 16.7627 3.08786 16.8563 3.08786H18.9092C18.9676 3.08786 19.0229 3.11393 19.0601 3.15896C19.0972 3.20406 19.1123 3.2633 19.1011 3.32066L18.6556 5.61329H20.2473C21.4598 5.61329 22.282 5.82706 22.7609 6.26684C23.249 6.71549 23.4014 7.43284 23.2137 8.39922L22.3547 12.8195C22.3368 12.9114 22.2564 12.9778 22.1628 12.9778H20.0772Z" fill="black"/>
<path d="M18.9092 2.89238H16.8563C16.669 2.89238 16.5081 3.02507 16.4724 3.20879L14.6262 12.7077C14.6039 12.8224 14.634 12.9409 14.7083 13.0311C14.7826 13.1212 14.8933 13.1733 15.0101 13.1733H17.063C17.2502 13.1733 17.4112 13.0406 17.4469 12.8569L18.4429 7.73144H19.7613C20.3715 7.73144 20.4996 7.86178 20.5047 7.86739C20.5417 7.90721 20.5904 8.09165 20.51 8.50484L19.6934 12.7077C19.6711 12.8224 19.7012 12.9409 19.7755 13.0311C19.8498 13.1212 19.9604 13.1733 20.0772 13.1733H22.1628C22.3499 13.1733 22.5109 13.0406 22.5466 12.8569L23.4055 8.4366C23.6071 7.39899 23.4347 6.62064 22.8932 6.12298C22.3765 5.64846 21.511 5.41781 20.2473 5.41781H18.8927L19.2931 3.35804C19.3153 3.2434 19.2853 3.12479 19.211 3.03472C19.1367 2.94458 19.026 2.89238 18.9092 2.89238ZM18.9092 3.28342L18.4184 5.80885H20.2473C21.398 5.80885 22.1918 6.00971 22.6286 6.41091C23.0655 6.81238 23.1963 7.46286 23.0217 8.36205L22.1628 12.7823H20.0772L20.8939 8.57946C20.9868 8.10136 20.9527 7.77523 20.7913 7.60135C20.6299 7.42747 20.2865 7.3404 19.7613 7.3404H18.1205L17.063 12.7823H15.0101L16.8563 3.28342H18.9092Z" fill="white"/>
<path d="M26.462 11.0877C27.2483 11.0877 27.8353 10.9427 28.2067 10.6569C28.5741 10.374 28.8279 9.88387 28.961 9.20008C29.085 8.561 29.0378 8.11477 28.8206 7.87395C28.5985 7.62799 28.1185 7.50325 27.3937 7.50325H26.1371L25.4405 11.0877H26.462ZM22.3521 15.5032C22.2937 15.5032 22.2383 15.4771 22.2013 15.432C22.1641 15.387 22.149 15.3277 22.1601 15.2704L24.0063 5.77142C24.0243 5.6796 24.1047 5.61325 24.1983 5.61325H28.1773C29.4279 5.61325 30.3586 5.9528 30.9437 6.62258C31.5319 7.29581 31.7135 8.23696 31.4836 9.41984C31.3899 9.90173 31.2289 10.3493 31.0051 10.7499C30.7809 11.1511 30.4847 11.5222 30.1245 11.8533C29.6933 12.2569 29.2053 12.5495 28.6754 12.7217C28.1538 12.8916 27.4839 12.9777 26.6845 12.9777H25.0732L24.6133 15.3449C24.5954 15.4368 24.5149 15.5032 24.4213 15.5032H22.3521Z" fill="black"/>
<path d="M26.2983 7.69881H27.3938C28.2684 7.69881 28.5723 7.89074 28.6755 8.00512C28.8468 8.19503 28.8792 8.59545 28.769 9.16297C28.6453 9.79847 28.416 10.249 28.0875 10.502C27.751 10.761 27.2041 10.8923 26.462 10.8923H25.6778L26.2983 7.69881ZM28.1773 5.41777H24.1983C24.0111 5.41777 23.8502 5.55046 23.8145 5.73418L21.9683 15.2331C21.946 15.3478 21.9761 15.4663 22.0503 15.5565C22.1246 15.6466 22.2353 15.6987 22.3521 15.6987H24.4213C24.6085 15.6987 24.7695 15.566 24.8052 15.3823L25.2345 13.1733H26.6845C27.5045 13.1733 28.1948 13.0839 28.7361 12.9076C29.2927 12.7267 29.8049 12.42 30.2582 11.9961C30.6331 11.6513 30.9418 11.2642 31.1757 10.8455C31.4098 10.4266 31.5779 9.95951 31.6755 9.45716C31.9176 8.21204 31.7209 7.21503 31.0909 6.49397C30.4671 5.77987 29.4868 5.41777 28.1773 5.41777ZM25.2034 11.2833H26.462C27.2963 11.2833 27.9177 11.1262 28.326 10.8118C28.7344 10.4974 29.0098 9.97274 29.1529 9.23747C29.2899 8.53152 29.2275 8.03334 28.9658 7.74313C28.7038 7.45291 28.1799 7.30777 27.3938 7.30777H25.976L25.2034 11.2833ZM28.1773 5.80881C29.3744 5.80881 30.2476 6.12294 30.7965 6.75127C31.3454 7.37959 31.5106 8.25662 31.2916 9.3826C31.2015 9.84644 31.049 10.2705 30.8344 10.6547C30.6195 11.0392 30.339 11.3907 29.9923 11.7095C29.5791 12.0961 29.12 12.3717 28.615 12.5358C28.1099 12.7003 27.4666 12.7823 26.6845 12.7823H24.9121L24.4213 15.3077H22.3521L24.1983 5.80881H28.1773Z" fill="white"/>
<defs>
<radialGradient id="paint0_radial_9_53" cx="0" cy="0" r="1" gradientUnits="userSpaceOnUse" gradientTransform="translate(11.34 3.85367) scale(23.6614)">
<stop stop-color="#AEB2D5"/>
<stop offset="0.3" stop-color="#AEB2D5"/>
<stop offset="0.75" stop-color="#484C89"/>
<stop offset="1" stop-color="#484C89"/>
</radialGradient>
</defs>
</svg>
