<svg width="30" height="31" viewBox="0 0 30 31" fill="none" xmlns="http://www.w3.org/2000/svg">
<path d="M14.587 0.00700431C13.3709 0.00700431 12.1939 0.120786 11.1693 0.313519C8.1324 0.847598 7.59933 1.95755 7.59933 4.05904V6.8107H14.7393V7.72792H4.94087C2.88933 7.72792 1.06856 8.98882 0.498558 11.3573C-0.147596 14.109 -0.184519 15.7902 0.498558 18.6556C0.992404 20.7966 2.20856 22.2851 4.29702 22.2851H6.76625V18.9993C6.76625 16.6308 8.81779 14.5293 11.2086 14.5293H18.3093C20.2847 14.5293 21.8793 12.8853 21.8793 10.8604V4.01956C21.8793 2.07133 20.2455 0.617712 18.3093 0.274044C17.0539 0.083633 15.8009 -0.030149 14.587 0.00700431ZM10.7124 2.18512C11.4347 2.18512 12.0416 2.79582 12.0416 3.55979C12.0416 4.32375 11.4347 4.93446 10.7124 4.93446C9.9901 4.93446 9.38317 4.32375 9.38317 3.55979C9.38317 2.79582 9.95317 2.18512 10.7124 2.18512Z" fill="url(#paint0_linear_30_4)"/>
<path d="M22.7517 7.64893V10.8209C22.7517 13.3055 20.6632 15.3675 18.2701 15.3675H11.1694C9.23321 15.3675 7.59937 17.0487 7.59937 19.0364V25.8773C7.59937 27.8255 9.27013 28.9726 11.1694 29.5462C13.4101 30.2335 15.5747 30.3496 18.3094 29.5462C20.0932 29.0121 21.8794 27.9787 21.8794 25.8773V23.1256H14.7371V22.2084H25.4471C27.4986 22.2084 28.2947 20.7571 29.0171 18.579C29.7763 16.3242 29.7394 14.1856 29.0171 11.2807C28.5232 9.21633 27.5355 7.65125 25.4471 7.65125L22.7517 7.64893ZM18.7247 24.96C19.4471 24.96 20.054 25.5707 20.054 26.3347C20.054 27.0987 19.4471 27.7094 18.7247 27.7094C18.0024 27.7094 17.3955 27.0987 17.3955 26.3347C17.3955 25.5707 18.0047 24.96 18.7247 24.96Z" fill="url(#paint1_linear_30_4)"/>
<defs>
<linearGradient id="paint0_linear_30_4" x1="-0.787223" y1="0.820878" x2="15.7507" y2="14.8246" gradientUnits="userSpaceOnUse">
<stop stop-color="#5CA0D5"/>
<stop offset="1" stop-color="#316A99"/>
</linearGradient>
<linearGradient id="paint1_linear_30_4" x1="21.8679" y1="23.7084" x2="15.9165" y2="15.4215" gradientUnits="userSpaceOnUse">
<stop stop-color="#FFD43E"/>
<stop offset="1" stop-color="#FFE975"/>
</linearGradient>
</defs>
</svg>
