<svg width="34" height="34" viewBox="0 0 34 34" fill="none" xmlns="http://www.w3.org/2000/svg">
<g clip-path="url(#clip0_9_90)">
<path d="M17.0001 20.008C18.6769 20.008 20.0362 18.6487 20.0362 16.9719C20.0362 15.2951 18.6769 13.9358 17.0001 13.9358C15.3233 13.9358 13.964 15.2951 13.964 16.9719C13.964 18.6487 15.3233 20.008 17.0001 20.008Z" fill="#00D8FF"/>
<path fill-rule="evenodd" clip-rule="evenodd" d="M17.0002 10.7988C21.0766 10.7988 24.8634 11.3838 27.7187 12.3667C31.1589 13.5511 33.2741 15.3463 33.2741 16.9719C33.2741 18.6658 31.0324 20.573 27.3381 21.797C24.5451 22.7224 20.8697 23.2054 17.0002 23.2054C13.0328 23.2054 9.276 22.752 6.45154 21.7868C2.87807 20.5654 0.725739 18.6336 0.725739 16.9719C0.725739 15.3595 2.74529 13.5781 6.13713 12.3956C9.00306 11.3964 12.8834 10.7988 16.9996 10.7988H17.0002Z" stroke="#00D8FF" stroke-width="2"/>
<path fill-rule="evenodd" clip-rule="evenodd" d="M11.6263 13.9031C13.6628 10.3719 16.0613 7.38361 18.3392 5.40122C21.0838 3.01274 23.6957 2.07734 25.1038 2.88934C26.5713 3.73559 27.1035 6.63032 26.3182 10.442C25.7251 13.3238 24.3069 16.7489 22.3738 20.101C20.3918 23.5378 18.1223 26.5657 15.8753 28.5297C13.0321 31.0152 10.2833 31.9146 8.84382 31.0845C7.44701 30.2795 6.91287 27.6397 7.58294 24.1106C8.14911 21.1287 9.56994 17.4688 11.6257 13.903L11.6263 13.9031Z" stroke="#00D8FF" stroke-width="2"/>
<path fill-rule="evenodd" clip-rule="evenodd" d="M11.6314 20.11C9.58919 16.5828 8.19875 13.0118 7.61836 10.0483C6.91972 6.47758 7.41368 3.74752 8.82053 2.93316C10.2866 2.08443 13.0603 3.06897 15.9704 5.65293C18.1706 7.60652 20.43 10.5452 22.3687 13.8941C24.3564 17.3276 25.8462 20.8061 26.4257 23.7336C27.1591 27.4382 26.5655 30.2688 25.1274 31.1013C23.732 31.9091 21.1785 31.0538 18.4557 28.7107C16.1551 26.7311 13.6938 23.6723 11.6314 20.1099V20.11Z" stroke="#00D8FF" stroke-width="2"/>
</g>
<defs>
<clipPath id="clip0_9_90">
<rect width="34" height="34" fill="white"/>
</clipPath>
</defs>
</svg>
