<svg width="32" height="30" viewBox="0 0 32 30" fill="none" xmlns="http://www.w3.org/2000/svg">
<g clip-path="url(#clip0_9_88)">
<path d="M21.821 20.8684C22.9831 20.7482 23.8648 19.7469 23.8247 18.5453C23.7847 17.3438 22.7827 16.3825 21.5805 16.3825H21.5004C20.2579 16.4226 19.2962 17.4639 19.3363 18.7055C19.3764 19.3063 19.6168 19.827 19.9774 20.1874C18.6149 22.871 16.531 24.8335 13.4051 26.4756C11.2811 27.5971 9.07698 27.9976 6.87287 27.7173C5.06943 27.477 3.66679 26.676 2.78499 25.3542C1.50266 23.3916 1.38247 21.2688 2.46453 19.1461C3.22601 17.6241 4.42814 16.5026 5.18962 15.9419C5.02933 15.4212 4.78883 14.5401 4.66864 13.8994C-1.14234 18.1048 -0.541156 23.7922 1.22218 26.4756C2.54462 28.4783 5.22972 29.7199 8.19531 29.7199C8.99677 29.7199 9.79823 29.6398 10.5998 29.4396C15.7295 28.4383 19.6169 25.3942 21.821 20.8684ZM28.8743 15.9019C25.8285 12.3373 21.3401 10.3748 16.2104 10.3748H15.5692C15.2085 9.65383 14.4471 9.17313 13.6055 9.17313H13.5253C12.2831 9.21321 11.3213 10.2545 11.3613 11.4962C11.4014 12.6977 12.4033 13.659 13.6055 13.659H13.6856C14.5673 13.6189 15.3287 13.0582 15.6493 12.2972H16.3707C19.4165 12.2972 22.3019 13.1783 24.9069 14.9006C26.9106 16.2223 28.3533 17.9446 29.1548 20.0272C29.8361 21.7094 29.796 23.3516 29.0746 24.7535C27.9526 26.8762 26.069 28.0377 23.5843 28.0377C21.9813 28.0377 20.4584 27.557 19.6569 27.1966C19.2161 27.5971 18.4145 28.2379 17.8534 28.6385C19.5768 29.4395 21.3401 29.8801 23.0232 29.8801C26.8705 29.8801 29.7159 27.7573 30.798 25.6346C31.9601 23.3115 31.8799 19.3063 28.8743 15.9019ZM8.51589 21.5491C8.556 22.7508 9.55785 23.7119 10.7601 23.7119H10.8403C12.0827 23.672 13.0444 22.6305 13.0043 21.3889C12.9643 20.1873 11.9624 19.2262 10.7601 19.2262H10.68C10.5998 19.2262 10.4795 19.2262 10.3995 19.2661C8.75639 16.5426 8.07512 13.5788 8.31562 10.3746C8.47579 7.9715 9.27737 5.88875 10.68 4.16647C11.8422 2.68454 14.0864 1.96361 15.6093 1.92365C19.8573 1.84349 21.6606 7.13034 21.7809 9.25316C22.3019 9.37328 23.1835 9.6537 23.7847 9.85398C23.3037 3.36563 19.2962 0.0012207 15.449 0.0012207C11.8422 0.0012207 8.51589 2.60462 7.19333 6.44961C5.34991 11.5763 6.55216 16.5026 8.79637 20.3877C8.5961 20.668 8.47579 21.1086 8.51589 21.5492V21.5491Z" fill="#764ABC"/>
</g>
<defs>
<clipPath id="clip0_9_88">
<rect width="31.4925" height="30" fill="white"/>
</clipPath>
</defs>
</svg>
