<svg width="25" height="30" viewBox="0 0 25 30" fill="none" xmlns="http://www.w3.org/2000/svg">
<path d="M22.4121 4.92437C19.8662 1.28256 14.8376 0.203099 11.2022 2.51845L4.81783 6.5861C4.38833 6.85597 3.98765 7.16974 3.6231 7.5224C3.2581 7.87505 2.93106 8.26475 2.64701 8.6851C2.36297 9.10545 2.12329 9.55416 1.93164 10.0239C1.74045 10.4939 1.59851 10.9824 1.50809 11.4816C1.43262 11.9002 1.39145 12.3246 1.38596 12.75C1.38002 13.1758 1.40975 13.6012 1.47424 14.0216C1.53873 14.4424 1.63799 14.8572 1.77063 15.2616C1.90328 15.6659 2.06932 16.0584 2.26691 16.4353C2.13098 16.6418 2.00549 16.8551 1.89093 17.0743C1.77612 17.2934 1.67275 17.5184 1.58081 17.748C1.48888 17.9776 1.40883 18.2118 1.34068 18.4497C1.27253 18.6875 1.21672 18.9286 1.17281 19.1719C0.990358 20.1952 1.01446 21.2446 1.24371 22.2584C1.35806 22.7638 1.52227 23.2569 1.7345 23.7299C1.94673 24.2028 2.20516 24.6538 2.50705 25.0755C5.05293 28.7173 10.0811 29.7968 13.7165 27.4815L20.1009 23.4307C20.5304 23.1604 20.9302 22.8462 21.2947 22.4931C21.6592 22.1402 21.9862 21.7506 22.2703 21.3304C22.5544 20.9105 22.7941 20.4618 22.9857 19.992C23.1774 19.5227 23.3196 19.0342 23.4106 18.5352C23.4861 18.1167 23.5268 17.6927 23.5323 17.2673C23.5378 16.8419 23.5081 16.4165 23.4431 15.9962C23.3786 15.5758 23.2794 15.1614 23.1463 14.7571C23.0132 14.3532 22.8471 13.9607 22.6495 13.5838C22.7854 13.3776 22.9112 13.164 23.026 12.9449C23.1403 12.7258 23.2441 12.5007 23.3361 12.2711C23.428 12.0415 23.5085 11.8073 23.5771 11.5695C23.6453 11.3321 23.702 11.091 23.7464 10.8477C23.8369 10.3372 23.8763 9.81899 23.8644 9.30076C23.8525 8.78253 23.7889 8.26704 23.6746 7.76116C23.5602 7.25573 23.396 6.76266 23.1838 6.28971C22.9718 5.81668 22.7133 5.3659 22.4121 4.94404" fill="#FF3E00"/>
<path d="M10.5783 25.4277C10.0786 25.5575 9.56206 25.6103 9.04647 25.5841C8.53098 25.5576 8.02235 25.4533 7.53842 25.2736C7.05448 25.0941 6.60071 24.8419 6.19276 24.5257C5.78514 24.2093 5.42808 23.8327 5.13388 23.4087C4.95229 23.1549 4.79677 22.8841 4.66962 22.5996C4.54209 22.3153 4.44326 22.0189 4.3746 21.715C4.30644 21.4108 4.26802 21.1007 4.26116 20.7892C4.2543 20.4777 4.27854 20.1662 4.33343 19.8593C4.34212 19.8095 4.35218 19.7596 4.36316 19.7102C4.37368 19.6604 4.38557 19.611 4.39838 19.562C4.41073 19.5126 4.42445 19.4637 4.43909 19.4147C4.45327 19.3662 4.46882 19.3178 4.48483 19.2697L4.60512 18.9024L4.93308 19.1472C5.12107 19.2844 5.31501 19.4138 5.51398 19.5346C5.71294 19.6558 5.91694 19.7683 6.12552 19.8717C6.33363 19.9755 6.54678 20.0706 6.76313 20.1562C6.97948 20.2422 7.19949 20.3185 7.4227 20.3858L7.66741 20.4567L7.64545 20.7014C7.63366 20.8679 7.65099 21.0353 7.69668 21.1958C7.7191 21.2763 7.74883 21.3541 7.78496 21.4291C7.8211 21.5041 7.86363 21.5759 7.91212 21.6436C8.00096 21.7713 8.10877 21.8847 8.23184 21.9798C8.35442 22.075 8.49119 22.1509 8.6371 22.2049C8.78301 22.2588 8.93578 22.2899 9.09129 22.2977C9.24635 22.3059 9.40187 22.2899 9.55235 22.2506C9.58711 22.2415 9.62096 22.2309 9.65481 22.219C9.68866 22.2071 9.72205 22.1943 9.75452 22.1797C9.78745 22.1655 9.81947 22.15 9.85149 22.1331C9.88305 22.1166 9.9137 22.0987 9.94388 22.0795L16.3187 18.0114C16.3968 17.9624 16.4696 17.9054 16.5359 17.8413C16.6022 17.7768 16.6612 17.7059 16.7129 17.6295C16.7646 17.5531 16.8076 17.4712 16.8424 17.3857C16.8767 17.3002 16.9023 17.2114 16.9188 17.1209C16.9348 17.028 16.9416 16.9343 16.9393 16.84C16.9371 16.7463 16.9252 16.653 16.9041 16.561C16.8835 16.4695 16.8534 16.3803 16.8145 16.2944C16.7761 16.2088 16.7285 16.1274 16.6736 16.051C16.5849 15.9234 16.4774 15.8104 16.3543 15.7153C16.2313 15.6201 16.0945 15.5442 15.9491 15.4902C15.8033 15.4363 15.6501 15.4048 15.4949 15.3969C15.3394 15.3892 15.1838 15.4052 15.0334 15.4441C14.9991 15.4532 14.9648 15.4637 14.9309 15.4756C14.8971 15.4875 14.8641 15.5003 14.8312 15.5145C14.7983 15.5291 14.7662 15.5447 14.7347 15.5616C14.7031 15.5781 14.672 15.5964 14.6418 15.6156L12.1938 17.1698C12.0941 17.2329 11.9917 17.2924 11.8874 17.3482C11.7826 17.4035 11.6765 17.4552 11.5681 17.5028C11.4597 17.5504 11.3495 17.5938 11.2379 17.6327C11.1263 17.672 11.0133 17.7068 10.8989 17.7374C10.3999 17.8664 9.88442 17.9186 9.36985 17.892C8.85527 17.8655 8.34802 17.7608 7.86501 17.5819C7.38199 17.4026 6.92917 17.1506 6.52208 16.835C6.115 16.5194 5.75823 16.1439 5.46412 15.7208C5.28345 15.4669 5.12839 15.1957 5.00169 14.9112C4.87453 14.6267 4.77619 14.3303 4.70804 14.0266C4.63989 13.7224 4.60238 13.4123 4.59598 13.1008C4.58912 12.7898 4.61336 12.4783 4.6687 12.1718C4.77684 11.5684 5.00958 10.9942 5.35206 10.4858C5.69477 9.97746 6.13987 9.54623 6.65885 9.21977L13.0533 5.15212C13.1525 5.089 13.2541 5.02953 13.3579 4.97373C13.4617 4.91839 13.5679 4.8667 13.6753 4.81913C13.7831 4.77154 13.8926 4.72821 14.0038 4.68923C14.1144 4.64989 14.227 4.61467 14.3409 4.58403C14.8403 4.45458 15.3567 4.40153 15.8718 4.4276C16.3873 4.45413 16.8954 4.55841 17.3794 4.73817C17.8633 4.91747 18.3166 5.16996 18.7246 5.48602C19.1321 5.8026 19.489 6.1794 19.783 6.60344C19.9641 6.85684 20.1201 7.12762 20.2477 7.41213C20.3753 7.69663 20.4741 7.99256 20.5432 8.29673C20.6118 8.6009 20.6502 8.91102 20.6571 9.22251C20.6644 9.534 20.6406 9.84549 20.5857 10.1524C20.5761 10.2027 20.5661 10.253 20.5546 10.3029C20.5436 10.3527 20.5318 10.4026 20.5189 10.452C20.5066 10.5019 20.4929 10.5513 20.4787 10.6002C20.4645 10.6496 20.4499 10.6985 20.4339 10.747L20.3117 11.1143L19.9861 10.8696C19.7976 10.731 19.6032 10.6011 19.4038 10.479C19.2044 10.3573 18.9995 10.2439 18.7904 10.1391C18.3719 9.93038 17.9366 9.75717 17.4891 9.62136L17.244 9.55047L17.2664 9.30576C17.2732 9.22205 17.2728 9.13789 17.265 9.05464C17.2577 8.9714 17.2426 8.88861 17.2206 8.80765C17.1982 8.72715 17.1694 8.64802 17.1333 8.57255C17.0976 8.49662 17.0551 8.42435 17.0066 8.35574C16.9173 8.23038 16.8095 8.11933 16.6869 8.02641C16.5644 7.93307 16.4283 7.85903 16.2834 7.80686C15.9923 7.70124 15.6758 7.68703 15.3764 7.76615C15.3416 7.7753 15.3073 7.78582 15.274 7.79725C15.2401 7.80915 15.2067 7.82241 15.1738 7.83659C15.1413 7.85077 15.1088 7.86678 15.0773 7.88325C15.0457 7.90017 15.0146 7.91801 14.9844 7.93722L8.59776 11.998C8.52 12.0469 8.44727 12.1041 8.38141 12.1682C8.31554 12.2322 8.25608 12.3031 8.2044 12.379C8.15314 12.4554 8.10977 12.5368 8.07495 12.6219C8.04019 12.7074 8.01458 12.7957 7.99811 12.8863C7.9821 12.9791 7.97524 13.0734 7.97753 13.1676C7.98301 13.3562 8.02544 13.5419 8.1024 13.7142C8.1412 13.7999 8.18823 13.8817 8.24282 13.9584C8.3311 14.0847 8.43813 14.1972 8.56025 14.2914C8.68213 14.3861 8.8177 14.4616 8.96231 14.5155C9.25309 14.6236 9.56983 14.641 9.8707 14.5654C9.90501 14.5558 9.93931 14.5453 9.97316 14.5334C10.0065 14.5215 10.0399 14.5082 10.0729 14.494C10.1057 14.4798 10.1378 14.4642 10.1694 14.4474C10.2009 14.4309 10.232 14.4131 10.2622 14.3939L12.7102 12.8424C12.8104 12.7783 12.9124 12.718 13.0171 12.6621C13.1214 12.6059 13.228 12.5542 13.3369 12.5062C13.4454 12.4586 13.5557 12.4153 13.6676 12.3763C13.7796 12.3369 13.8931 12.3022 14.0079 12.272C14.5074 12.1421 15.0233 12.089 15.5388 12.1146C16.0543 12.1407 16.5624 12.245 17.0464 12.4243C17.5298 12.6036 17.9836 12.8556 18.3911 13.1721C18.7991 13.4882 19.1559 13.8647 19.45 14.2887C19.6311 14.5425 19.7867 14.8133 19.9143 15.0978C20.0419 15.3821 20.1409 15.6785 20.2097 15.9824C20.2784 16.2861 20.3168 16.5962 20.3241 16.9077C20.3314 17.2197 20.3072 17.5312 20.2527 17.8376C20.1988 18.1385 20.1137 18.433 19.9989 18.7163C19.8841 18.9997 19.74 19.2702 19.5689 19.5236C19.3983 19.777 19.2016 20.0121 18.9821 20.2248C18.7625 20.4375 18.5215 20.6268 18.2626 20.7897L11.8755 24.8573C11.7753 24.9209 11.6729 24.9808 11.5686 25.0366C11.4638 25.0924 11.3572 25.1441 11.2484 25.1917C11.14 25.2397 11.0297 25.2832 10.9177 25.3225C10.8061 25.3618 10.6926 25.3971 10.5783 25.4277Z" fill="white"/>
</svg>
